<svg viewBox="0 0 70 36" xmlns="http://www.w3.org/2000/svg" fill-rule="evenodd" clip-rule="evenodd" stroke-linejoin="round" stroke-miterlimit="1.414" height="35.875px"><path d="M32.068 15.873h37.229v20H17.52l.268-.069c4.25.016 9.133-.167 12.082-.726 2.551-.484 2.467-1.518 1.542-1.998l-.951-11.647-.043.052-.196-2.34.026-.09c.502-1.779.417-1.796 1.027-2.394.299-.216.563-.482.793-.788z" fill="#555"/><g fill="#f85d5d"><path d="M5.48 12.016c.055.015.066.035.071.087-.1 1.2-.059 1.155-.19 1.158-2.495-.023-3.188.439-3.171.435-.239.35-.387 1.091-.451 1.516-.378 2.523.25 8.664 2.733 9.265l.026.011c.075.073.02-.005-.054 1.174l-.009.032-.022.026-.031.014c-2.274-.519-3.019-2.577-3.57-4.943-.869-3.728-.382-7.604.738-8.18 1.193-.612 3.446-.686 3.93-.595M17.69 1.771c.103.126.639 1.002.639 1.002.154-.146.55-.735 1.46-1.226 2.729-1.471 6.121.144 6.688 3.217 1.107-.688 1.942-1.065 3.27-.484 3.85 1.687 4.813 10.004 1.528 12.381-.61.598-.525.615-1.027 2.394-.219.771-.427 1.346-1.005 1.902-.458.441-1.911.395-2.372-.726l-.005-.013c-1.374-2.367-.297-2.408-1.892-2.205a7.898 7.898 0 0 1-1.573.033c-1.551-.286-1.856-1.684-2.219-2.96-.795-2.786-1.145-3.532-1.139-3.515-.446 1.043-2.409 1.164-2.947-.264l-.008-.006c-1.682 1.759-4.586 1.412-5.806-.705-.381-.664-.342-.972-.441-1.111-.077-.107-.045-.112-.103-.037a3.294 3.294 0 0 1-4.141.867C3.756 8.789 4.578 4.502 7.772 4.134c.879-.1 1.6.214 1.582.206.378-4.189 5.655-5.847 8.336-2.569"/><path d="M6.933 11.755a4.518 4.518 0 0 0 3.391-.391c.078.104.397.67 1.099 1.228a4.865 4.865 0 0 0 5.463.401c.809.559 1.601.756 2.551.48.903 2.904.982 4.11 2.207 5.073 1.113.88 2.39.745 2.408.748h-.009c.31-.002.547-.007 1.028-.066.362 1.006.663 1.46.697 1.527l.008.013c.002.004-.007-.018.021.045.798 1.7 3.279 2.316 4.664.62l.951 11.647c.925.48 1.009 1.514-1.542 1.998-4.194.795-12.3.83-16.93.613-1.345-.061-7.34-.337-8.235-1.337-.335-.375-.306-.97.487-1.328l.005-.002 1.736-21.269z"/></g><text x="40.902" y="30.09" font-family="DejaVu Sans,Verdana,Geneva,sans-serif" font-size="11" fill="#fff">$3</text></svg>
